# xmcd CD database file
#
# Track frame offsets:
#	150
#	2472
#	22000
#	40455
#	58397
#	77305
#	94257
#	112552
#	127807
#	144645
#	164147
#	180170
#	200805
#	218525
#
# Disc length: 3144 seconds
#
# Revision: 0
# Processed by: cddbd v1.4PL0 Copyright (c) Steve Scherf et al.
# Submitted via: Feurio! 1.65 - http://www.feurio.com
#
DISCID=b40c460e
DTITLE=Zezé Di Camargo and Luciano - 15.10.2002 12.35.07
DYEAR=1900
DGENRE=
TTITLE0=Emoção
TTITLE1=Amor Selvagem
TTITLE2=Indiferença
TTITLE3=Pão de mel
TTITLE4=Será que foi saudade
TTITLE5=Toma juízo
TTITLE6=Vem ficar comigo
TTITLE7=É o amor
TTITLE8=Salva meu coração
TTITLE9=Saudade bandida
TTITLE10=Coração na contra-mão
TTITLE11=Sem medo de ser feliz
TTITLE12=Vem cuidar de mim
TTITLE13=Coração está em pedaçõs
EXTD=
EXTT0=
EXTT1=
EXTT2=
EXTT3=
EXTT4=
EXTT5=
EXTT6=
EXTT7=
EXTT8=
EXTT9=
EXTT10=
EXTT11=
EXTT12=
EXTT13=
PLAYORDER=
